<mxfile host="app.diagrams.net" modified="2024-04-19T10:49:25.514Z" agent="Mozilla/5.0 (Windows NT 10.0; Win64; x64) AppleWebKit/537.36 (KHTML, like Gecko) Chrome/123.0.0.0 Safari/537.36" etag="i3CpvgpwD9IQhcUDBXCr" version="24.2.5" type="github">
  <diagram name="Page-1" id="MfreXHLO4Nem9i27JCq7">
    <mxGraphModel dx="2269" dy="1200" grid="1" gridSize="10" guides="1" tooltips="1" connect="0" arrows="1" fold="1" page="0" pageScale="1" pageWidth="827" pageHeight="1169" background="#FFFFFF" math="0" shadow="0">
      <root>
        <mxCell id="0" />
        <mxCell id="1" parent="0" />
        <mxCell id="dZYKD75arW8eq8bgGsH2-12" style="edgeStyle=orthogonalEdgeStyle;rounded=0;orthogonalLoop=1;jettySize=auto;html=1;exitX=0.5;exitY=1;exitDx=0;exitDy=0;entryX=0.5;entryY=0;entryDx=0;entryDy=0;" parent="1" source="dZYKD75arW8eq8bgGsH2-1" target="dZYKD75arW8eq8bgGsH2-3" edge="1">
          <mxGeometry relative="1" as="geometry" />
        </mxCell>
        <mxCell id="dZYKD75arW8eq8bgGsH2-1" value="" style="rounded=1;whiteSpace=wrap;html=1;fillColor=#1ba1e2;fontColor=#ffffff;strokeColor=#006EAF;" parent="1" vertex="1">
          <mxGeometry x="360" y="50" width="120" height="60" as="geometry" />
        </mxCell>
        <mxCell id="dZYKD75arW8eq8bgGsH2-16" style="edgeStyle=orthogonalEdgeStyle;rounded=0;orthogonalLoop=1;jettySize=auto;html=1;exitX=0.5;exitY=1;exitDx=0;exitDy=0;entryX=0.5;entryY=0;entryDx=0;entryDy=0;" parent="1" source="dZYKD75arW8eq8bgGsH2-2" target="dZYKD75arW8eq8bgGsH2-13" edge="1">
          <mxGeometry relative="1" as="geometry" />
        </mxCell>
        <mxCell id="dZYKD75arW8eq8bgGsH2-2" value="Physical Testing" style="rounded=1;whiteSpace=wrap;html=1;fontSize=17;fillColor=#1ba1e2;fontColor=#080707;strokeColor=#006EAF;labelBorderColor=none;fontStyle=1" parent="1" vertex="1">
          <mxGeometry x="160" y="150" width="120" height="60" as="geometry" />
        </mxCell>
        <mxCell id="dZYKD75arW8eq8bgGsH2-17" style="edgeStyle=orthogonalEdgeStyle;rounded=0;orthogonalLoop=1;jettySize=auto;html=1;exitX=0.5;exitY=1;exitDx=0;exitDy=0;entryX=0.5;entryY=0;entryDx=0;entryDy=0;" parent="1" source="dZYKD75arW8eq8bgGsH2-3" target="dZYKD75arW8eq8bgGsH2-14" edge="1">
          <mxGeometry relative="1" as="geometry" />
        </mxCell>
        <mxCell id="dZYKD75arW8eq8bgGsH2-3" value="Simulation&amp;nbsp;" style="rounded=1;whiteSpace=wrap;html=1;fontSize=18;fillColor=#1ba1e2;fontColor=#080808;strokeColor=#006EAF;fontStyle=1" parent="1" vertex="1">
          <mxGeometry x="560" y="150" width="120" height="60" as="geometry" />
        </mxCell>
        <mxCell id="dZYKD75arW8eq8bgGsH2-4" value="Parameter testing and evalution in different environments" style="rounded=1;whiteSpace=wrap;html=1;fontSize=14;fillColor=#1ba1e2;fontColor=#050505;strokeColor=#006EAF;fontStyle=1" parent="1" vertex="1">
          <mxGeometry x="80" y="350" width="140" height="80" as="geometry" />
        </mxCell>
        <mxCell id="dZYKD75arW8eq8bgGsH2-5" value="Small scaled test to proposed architecture" style="rounded=1;whiteSpace=wrap;html=1;fontSize=14;fillColor=#1ba1e2;fontColor=#050505;strokeColor=#006EAF;fontStyle=1" parent="1" vertex="1">
          <mxGeometry x="240" y="350" width="120" height="80" as="geometry" />
        </mxCell>
        <mxCell id="dZYKD75arW8eq8bgGsH2-8" value="Propagation model parameter tuning with LoRa parameters" style="rounded=1;whiteSpace=wrap;html=1;fontSize=14;fillColor=#1ba1e2;fontColor=#050505;strokeColor=#006EAF;fontStyle=1" parent="1" vertex="1">
          <mxGeometry x="480" y="350" width="140" height="80" as="geometry" />
        </mxCell>
        <mxCell id="dZYKD75arW8eq8bgGsH2-9" value="Large scale EEW system testing" style="rounded=1;whiteSpace=wrap;html=1;fontSize=14;fillColor=#1ba1e2;fontColor=#050505;strokeColor=#006EAF;fontStyle=1" parent="1" vertex="1">
          <mxGeometry x="630" y="350" width="130" height="80" as="geometry" />
        </mxCell>
        <mxCell id="dZYKD75arW8eq8bgGsH2-10" style="edgeStyle=orthogonalEdgeStyle;rounded=0;orthogonalLoop=1;jettySize=auto;html=1;exitX=0.5;exitY=1;exitDx=0;exitDy=0;entryX=0.5;entryY=0;entryDx=0;entryDy=0;" parent="1" source="dZYKD75arW8eq8bgGsH2-1" target="dZYKD75arW8eq8bgGsH2-2" edge="1">
          <mxGeometry relative="1" as="geometry" />
        </mxCell>
        <mxCell id="dZYKD75arW8eq8bgGsH2-20" value="" style="edgeStyle=orthogonalEdgeStyle;rounded=0;orthogonalLoop=1;jettySize=auto;html=1;" parent="1" source="dZYKD75arW8eq8bgGsH2-13" target="dZYKD75arW8eq8bgGsH2-5" edge="1">
          <mxGeometry relative="1" as="geometry">
            <Array as="points">
              <mxPoint x="220" y="320" />
              <mxPoint x="300" y="320" />
            </Array>
          </mxGeometry>
        </mxCell>
        <mxCell id="dZYKD75arW8eq8bgGsH2-13" value="Development of firmware" style="rounded=1;whiteSpace=wrap;html=1;fontSize=17;fillColor=#1ba1e2;fontColor=#050505;strokeColor=#006EAF;fontStyle=1" parent="1" vertex="1">
          <mxGeometry x="160" y="240" width="120" height="60" as="geometry" />
        </mxCell>
        <mxCell id="dZYKD75arW8eq8bgGsH2-23" value="" style="edgeStyle=orthogonalEdgeStyle;rounded=0;orthogonalLoop=1;jettySize=auto;html=1;" parent="1" source="dZYKD75arW8eq8bgGsH2-14" target="dZYKD75arW8eq8bgGsH2-9" edge="1">
          <mxGeometry relative="1" as="geometry">
            <Array as="points">
              <mxPoint x="620" y="320" />
              <mxPoint x="690" y="320" />
            </Array>
          </mxGeometry>
        </mxCell>
        <mxCell id="dZYKD75arW8eq8bgGsH2-14" value="Development of the simulation tool" style="rounded=1;whiteSpace=wrap;html=1;fontSize=16;fillColor=#1ba1e2;fontColor=#050505;strokeColor=#006EAF;fontStyle=1" parent="1" vertex="1">
          <mxGeometry x="560" y="240" width="120" height="60" as="geometry" />
        </mxCell>
        <mxCell id="dZYKD75arW8eq8bgGsH2-15" value="&lt;b style=&quot;font-size: 18px;&quot;&gt;Project&amp;nbsp; Flow&lt;/b&gt;" style="text;html=1;align=center;verticalAlign=middle;whiteSpace=wrap;rounded=0;fontSize=18;" parent="1" vertex="1">
          <mxGeometry x="384" y="65" width="76" height="30" as="geometry" />
        </mxCell>
        <mxCell id="dZYKD75arW8eq8bgGsH2-21" style="edgeStyle=orthogonalEdgeStyle;rounded=0;orthogonalLoop=1;jettySize=auto;html=1;entryX=0.467;entryY=0.011;entryDx=0;entryDy=0;entryPerimeter=0;" parent="1" target="dZYKD75arW8eq8bgGsH2-4" edge="1">
          <mxGeometry relative="1" as="geometry">
            <mxPoint x="220" y="320" as="sourcePoint" />
            <mxPoint x="20" y="370" as="targetPoint" />
            <Array as="points">
              <mxPoint x="220" y="320" />
              <mxPoint x="146" y="320" />
            </Array>
          </mxGeometry>
        </mxCell>
        <mxCell id="dZYKD75arW8eq8bgGsH2-25" style="edgeStyle=orthogonalEdgeStyle;rounded=0;orthogonalLoop=1;jettySize=auto;html=1;entryX=0.467;entryY=0.011;entryDx=0;entryDy=0;entryPerimeter=0;" parent="1" edge="1">
          <mxGeometry relative="1" as="geometry">
            <mxPoint x="620" y="320" as="sourcePoint" />
            <mxPoint x="550" y="350" as="targetPoint" />
            <Array as="points">
              <mxPoint x="630" y="320" />
              <mxPoint x="551" y="320" />
            </Array>
          </mxGeometry>
        </mxCell>
        <mxCell id="dZYKD75arW8eq8bgGsH2-26" value="" style="endArrow=none;html=1;rounded=0;" parent="1" edge="1">
          <mxGeometry width="50" height="50" relative="1" as="geometry">
            <mxPoint x="220" y="440" as="sourcePoint" />
            <mxPoint x="220" y="480" as="targetPoint" />
          </mxGeometry>
        </mxCell>
        <mxCell id="dZYKD75arW8eq8bgGsH2-27" value="" style="endArrow=none;html=1;rounded=0;" parent="1" edge="1">
          <mxGeometry width="50" height="50" relative="1" as="geometry">
            <mxPoint x="629" y="440" as="sourcePoint" />
            <mxPoint x="629" y="480" as="targetPoint" />
          </mxGeometry>
        </mxCell>
        <mxCell id="dZYKD75arW8eq8bgGsH2-28" value="" style="endArrow=none;html=1;rounded=0;" parent="1" edge="1">
          <mxGeometry width="50" height="50" relative="1" as="geometry">
            <mxPoint x="220" y="480" as="sourcePoint" />
            <mxPoint x="630" y="480" as="targetPoint" />
          </mxGeometry>
        </mxCell>
        <mxCell id="dZYKD75arW8eq8bgGsH2-29" value="" style="endArrow=classic;html=1;rounded=0;" parent="1" edge="1">
          <mxGeometry width="50" height="50" relative="1" as="geometry">
            <mxPoint x="430.41" y="480" as="sourcePoint" />
            <mxPoint x="430.41" y="520" as="targetPoint" />
          </mxGeometry>
        </mxCell>
        <mxCell id="dZYKD75arW8eq8bgGsH2-30" value="&lt;font style=&quot;font-size: 16px;&quot;&gt;Results&lt;/font&gt;" style="rounded=1;whiteSpace=wrap;html=1;fillColor=#1ba1e2;fontColor=#050505;strokeColor=#006EAF;fontStyle=1" parent="1" vertex="1">
          <mxGeometry x="371" y="520" width="120" height="60" as="geometry" />
        </mxCell>
        <mxCell id="lX2VysjmZPtBcdlBUERr-1" value="" style="endArrow=none;html=1;rounded=0;" edge="1" parent="1">
          <mxGeometry width="50" height="50" relative="1" as="geometry">
            <mxPoint x="130" y="440" as="sourcePoint" />
            <mxPoint x="310" y="440" as="targetPoint" />
          </mxGeometry>
        </mxCell>
        <mxCell id="lX2VysjmZPtBcdlBUERr-2" value="" style="endArrow=none;html=1;rounded=0;" edge="1" parent="1">
          <mxGeometry width="50" height="50" relative="1" as="geometry">
            <mxPoint x="540" y="440" as="sourcePoint" />
            <mxPoint x="720" y="440" as="targetPoint" />
          </mxGeometry>
        </mxCell>
        <mxCell id="lX2VysjmZPtBcdlBUERr-4" value="" style="endArrow=none;html=1;rounded=0;" edge="1" parent="1">
          <mxGeometry width="50" height="50" relative="1" as="geometry">
            <mxPoint x="310" y="440" as="sourcePoint" />
            <mxPoint x="310" y="430" as="targetPoint" />
          </mxGeometry>
        </mxCell>
        <mxCell id="lX2VysjmZPtBcdlBUERr-5" value="" style="endArrow=none;html=1;rounded=0;entryX=0.334;entryY=1.004;entryDx=0;entryDy=0;entryPerimeter=0;" edge="1" parent="1">
          <mxGeometry width="50" height="50" relative="1" as="geometry">
            <mxPoint x="540" y="440" as="sourcePoint" />
            <mxPoint x="540" y="430" as="targetPoint" />
          </mxGeometry>
        </mxCell>
        <mxCell id="lX2VysjmZPtBcdlBUERr-6" value="" style="endArrow=none;html=1;rounded=0;entryX=0.334;entryY=1.004;entryDx=0;entryDy=0;entryPerimeter=0;" edge="1" parent="1">
          <mxGeometry width="50" height="50" relative="1" as="geometry">
            <mxPoint x="720" y="440" as="sourcePoint" />
            <mxPoint x="720" y="430" as="targetPoint" />
          </mxGeometry>
        </mxCell>
        <mxCell id="lX2VysjmZPtBcdlBUERr-7" value="" style="endArrow=classic;html=1;rounded=0;entryX=0.492;entryY=0;entryDx=0;entryDy=0;entryPerimeter=0;" edge="1" parent="1" target="lX2VysjmZPtBcdlBUERr-8">
          <mxGeometry width="50" height="50" relative="1" as="geometry">
            <mxPoint x="430.41" y="580" as="sourcePoint" />
            <mxPoint x="431.05" y="608" as="targetPoint" />
          </mxGeometry>
        </mxCell>
        <mxCell id="lX2VysjmZPtBcdlBUERr-8" value="&lt;font style=&quot;font-size: 16px;&quot;&gt;Results Analysis&amp;nbsp;&lt;/font&gt;" style="rounded=1;whiteSpace=wrap;html=1;fillColor=#1ba1e2;fontColor=#050505;strokeColor=#006EAF;fontStyle=1" vertex="1" parent="1">
          <mxGeometry x="371" y="610" width="120" height="60" as="geometry" />
        </mxCell>
        <mxCell id="lX2VysjmZPtBcdlBUERr-10" value="" style="endArrow=none;html=1;rounded=0;entryX=0.514;entryY=1.056;entryDx=0;entryDy=0;entryPerimeter=0;" edge="1" parent="1">
          <mxGeometry width="50" height="50" relative="1" as="geometry">
            <mxPoint x="431.04" y="690" as="sourcePoint" />
            <mxPoint x="430.8200000000001" y="669.9999999999999" as="targetPoint" />
          </mxGeometry>
        </mxCell>
        <mxCell id="lX2VysjmZPtBcdlBUERr-12" value="" style="endArrow=none;html=1;rounded=0;" edge="1" parent="1">
          <mxGeometry width="50" height="50" relative="1" as="geometry">
            <mxPoint x="280" y="690" as="sourcePoint" />
            <mxPoint x="590" y="690" as="targetPoint" />
          </mxGeometry>
        </mxCell>
        <mxCell id="lX2VysjmZPtBcdlBUERr-13" value="" style="endArrow=classic;html=1;rounded=0;" edge="1" parent="1">
          <mxGeometry width="50" height="50" relative="1" as="geometry">
            <mxPoint x="280" y="690" as="sourcePoint" />
            <mxPoint x="280" y="720" as="targetPoint" />
          </mxGeometry>
        </mxCell>
        <mxCell id="lX2VysjmZPtBcdlBUERr-17" value="" style="rounded=1;whiteSpace=wrap;html=1;fillColor=#1ba1e2;fontColor=#050505;strokeColor=#006EAF;fontStyle=1" vertex="1" parent="1">
          <mxGeometry x="140" y="720" width="275" height="180" as="geometry" />
        </mxCell>
        <mxCell id="lX2VysjmZPtBcdlBUERr-18" value="" style="rounded=1;whiteSpace=wrap;html=1;fillColor=#1ba1e2;fontColor=#050505;strokeColor=#006EAF;fontStyle=1" vertex="1" parent="1">
          <mxGeometry x="450" y="720" width="270" height="180" as="geometry" />
        </mxCell>
        <mxCell id="lX2VysjmZPtBcdlBUERr-20" value="" style="endArrow=none;html=1;rounded=0;" edge="1" parent="1">
          <mxGeometry width="50" height="50" relative="1" as="geometry">
            <mxPoint x="130" y="440" as="sourcePoint" />
            <mxPoint x="130" y="430" as="targetPoint" />
          </mxGeometry>
        </mxCell>
        <mxCell id="lX2VysjmZPtBcdlBUERr-22" value="" style="endArrow=classic;html=1;rounded=0;" edge="1" parent="1">
          <mxGeometry width="50" height="50" relative="1" as="geometry">
            <mxPoint x="590" y="690" as="sourcePoint" />
            <mxPoint x="590" y="720" as="targetPoint" />
          </mxGeometry>
        </mxCell>
        <mxCell id="lX2VysjmZPtBcdlBUERr-23" value="Physical testing" style="text;html=1;align=center;verticalAlign=middle;whiteSpace=wrap;rounded=0;fontStyle=1;fontSize=20;fontColor=#f3f1f2;" vertex="1" parent="1">
          <mxGeometry x="140" y="750" width="180" height="30" as="geometry" />
        </mxCell>
        <mxCell id="lX2VysjmZPtBcdlBUERr-24" value="&lt;ul&gt;&lt;li&gt;&lt;b&gt;&lt;span style=&quot;color: rgb(13, 13, 13); font-family: Söhne, ui-sans-serif, system-ui, -apple-system, &amp;quot;Segoe UI&amp;quot;, Roboto, Ubuntu, Cantarell, &amp;quot;Noto Sans&amp;quot;, sans-serif, &amp;quot;Helvetica Neue&amp;quot;, Arial, &amp;quot;Apple Color Emoji&amp;quot;, &amp;quot;Segoe UI Emoji&amp;quot;, &amp;quot;Segoe UI Symbol&amp;quot;, &amp;quot;Noto Color Emoji&amp;quot;; white-space-collapse: preserve;&quot;&gt;&lt;font style=&quot;font-size: 12px;&quot;&gt;The assessment of link strength across various environments concerning different spreading factors.&lt;/font&gt;&lt;/span&gt;&lt;/b&gt;&lt;/li&gt;&lt;li&gt;&lt;b&gt;&lt;span style=&quot;color: rgb(13, 13, 13); font-family: Söhne, ui-sans-serif, system-ui, -apple-system, &amp;quot;Segoe UI&amp;quot;, Roboto, Ubuntu, Cantarell, &amp;quot;Noto Sans&amp;quot;, sans-serif, &amp;quot;Helvetica Neue&amp;quot;, Arial, &amp;quot;Apple Color Emoji&amp;quot;, &amp;quot;Segoe UI Emoji&amp;quot;, &amp;quot;Segoe UI Symbol&amp;quot;, &amp;quot;Noto Color Emoji&amp;quot;; white-space-collapse: preserve; font-size: 12px;&quot;&gt;Propogation model parameter evaluation&lt;/span&gt;&lt;/b&gt;&lt;/li&gt;&lt;li&gt;&lt;b&gt;&lt;span style=&quot;color: rgb(13, 13, 13); font-family: Söhne, ui-sans-serif, system-ui, -apple-system, &amp;quot;Segoe UI&amp;quot;, Roboto, Ubuntu, Cantarell, &amp;quot;Noto Sans&amp;quot;, sans-serif, &amp;quot;Helvetica Neue&amp;quot;, Arial, &amp;quot;Apple Color Emoji&amp;quot;, &amp;quot;Segoe UI Emoji&amp;quot;, &amp;quot;Segoe UI Symbol&amp;quot;, &amp;quot;Noto Color Emoji&amp;quot;; white-space-collapse: preserve; font-size: 12px;&quot;&gt;Proving the performance of the multi-hop architecture.&lt;/span&gt;&lt;/b&gt;&lt;/li&gt;&lt;/ul&gt;" style="text;html=1;align=left;verticalAlign=middle;whiteSpace=wrap;rounded=0;fontSize=13;" vertex="1" parent="1">
          <mxGeometry x="130" y="740" width="280" height="170" as="geometry" />
        </mxCell>
        <mxCell id="lX2VysjmZPtBcdlBUERr-25" value="Simulation testing" style="text;html=1;align=center;verticalAlign=middle;whiteSpace=wrap;rounded=0;fontStyle=1;fontSize=20;fontColor=#f3f1f2;" vertex="1" parent="1">
          <mxGeometry x="470" y="750" width="180" height="30" as="geometry" />
        </mxCell>
        <mxCell id="lX2VysjmZPtBcdlBUERr-27" value="&lt;ul&gt;&lt;li&gt;&lt;b&gt;Verification of the physical testing data&lt;/b&gt;&lt;/li&gt;&lt;li&gt;&lt;b&gt;Proving the multi-hop architecture for different propagation model parameters&lt;/b&gt;&lt;/li&gt;&lt;li&gt;&lt;b&gt;Performance evaluation of the proposed large scale network architecture&lt;/b&gt;&lt;/li&gt;&lt;/ul&gt;" style="text;html=1;align=left;verticalAlign=middle;whiteSpace=wrap;rounded=0;" vertex="1" parent="1">
          <mxGeometry x="440" y="775" width="270" height="100" as="geometry" />
        </mxCell>
      </root>
    </mxGraphModel>
  </diagram>
</mxfile>
